<svg xmlns="http://www.w3.org/2000/svg" width="466" height="470" viewBox="0 0 466 470">
  <g id="beer1" transform="translate(-550 -169)">
    <g id="Retângulo_1" data-name="Retângulo 1" transform="translate(550 169)" fill="none" stroke="#eb862e" stroke-width="7">
      <rect width="466" height="470" stroke="none"/>
      <rect x="3.5" y="3.5" width="459" height="463" fill="none"/>
    </g>
    <g id="Grupo_3" data-name="Grupo 3" transform="translate(102 63)">
      <g id="beer" transform="translate(492.153 152)">
        <path id="Caminho_1" data-name="Caminho 1" d="M51.247,171.174a19.806,19.806,0,0,1-20-20v-78.4a29.9,29.9,0,0,1,31.2-29.6c8,0,16,4,21.6,9.6a40.532,40.532,0,0,1-1.6-10.4,37.778,37.778,0,0,1,37.6-36c15.2,0,28.8,10.4,33.6,24.8,15.2-13.6,38.4-12,52,4,1.6,2.4,4,4.8,4.8,7.2,5.6-4,11.2-5.6,18.4-5.6a30.387,30.387,0,0,1,30.4,30.4,28.667,28.667,0,0,1-7.2,19.2l-2.4,3.2h-56.8v14.4c0,20-16.8,36-37.6,36-16.8,0-32-12.8-35.2-29.6a30.694,30.694,0,0,1-40.8,14.4,28.732,28.732,0,0,1-8-5.6v32.8c0,11.2-8.8,20-20,19.2Z" fill="#fff"/>
        <g id="Grupo_1" data-name="Grupo 1">
          <path id="Caminho_2" data-name="Caminho 2" d="M192.847,89.574h-31.2v14.4c0,13.6-8.8,26.4-20.8,32a34.667,34.667,0,0,0,15.2,3.2c20,0,36.8-16,36.8-36v-13.6Z" fill="#f7eeba"/>
          <path id="Caminho_3" data-name="Caminho 3" d="M228.847,37.574a33.089,33.089,0,0,0-15.2,4c14.4,8,19.2,25.6,11.2,40-.8,1.6-2.4,3.2-3.2,4.8l-2.4,3.2h31.2l2.4-3.2a28.667,28.667,0,0,0,7.2-19.2,31.5,31.5,0,0,0-31.2-29.6Z" fill="#f7eeba"/>
        </g>
        <path id="Caminho_4" data-name="Caminho 4" d="M86.447,369.573c-15.2,1.6-28.8-8.8-30.4-24v-173.6l4.8-2.4a19.181,19.181,0,0,0,11.2-17.6v-29.6l10.4,4a40.532,40.532,0,0,0,10.4,1.6c7.2,0,15.2-2.4,20.8-7.2l7.2-6.4,4.8,8c6.4,11.2,18.4,17.6,31.2,17.6,20,0,36.8-16,36.8-36v-4l.8-10.4h52.8a8.878,8.878,0,0,1,8.8,8.8h0v240.8c1.6,15.2-8.8,28.8-24,30.4H86.447Z" fill="#fbcf4c"/>
        <path id="Caminho_5" data-name="Caminho 5" d="M246.447,89.574h-42.4c4.8,0,8,4,8,8.8v240.8c1.6,15.2-8.8,28.8-24,30.4h36c15.2,1.6,28.8-8.8,30.4-24V98.374C254.447,93.574,251.247,89.574,246.447,89.574Z" fill="#edb248"/>
        <path id="Caminho_6" data-name="Caminho 6" d="M255.247,327.173v-44.8h28.8c18.4,0,20-18.4,20-26.4v-52.8c0-8-1.6-26.4-20-26.4h-28.8v-44h52.8c23.2,0,36.8,17.6,36.8,48v97.6c0,30.4-13.6,48-36.8,48Z" fill="#fbcf4c"/>
        <path id="Caminho_7" data-name="Caminho 7" d="M308.047,132.774h-25.6c23.2,0,36.8,17.6,36.8,48v97.6c0,30.4-13.6,48-36.8,48h25.6c23.2,0,36.8-17.6,36.8-48v-97.6C344.847,150.374,331.247,132.774,308.047,132.774Z" fill="#edb248"/>
        <g id="Grupo_2" data-name="Grupo 2">
          <path id="Caminho_8" data-name="Caminho 8" d="M308.047,124.774h-44.8v-26.4a16.127,16.127,0,0,0-2.4-8.8,35.1,35.1,0,0,0,7.2-21.6c0-21.6-17.6-38.4-39.2-38.4-4.8,0-10.4.8-14.4,3.2-13.6-16.8-36.8-22.4-56-12a44.182,44.182,0,0,0-61.6-13.6,43.308,43.308,0,0,0-20,31.2c-20-7.2-42.4,2.4-49.6,22.4a36.234,36.234,0,0,0-2.4,12.8v78.4a27.584,27.584,0,0,0,24,27.2v160c-1.6,19.2,12.8,36.8,32,38.4h144.8c19.2,1.6,36.8-12.8,38.4-32v-10.4h44c28,0,44.8-20.8,44.8-56v-98.4C352.847,145.574,336.047,124.774,308.047,124.774Zm-60.8,214.4a19.333,19.333,0,0,1-16.8,22.4h-144a19.333,19.333,0,0,1-22.4-16.8v-168c9.6-4.8,16-14.4,16-24.8v-18.4a39.068,39.068,0,0,0,38.4-7.2,45.148,45.148,0,0,0,61.6,15.2c12.8-8,20.8-22.4,21.6-37.6v-5.6h45.6a.784.784,0,0,1,.8.8h0v240h-.8Zm-.8-257.6h-53.6a7.558,7.558,0,0,0-8,8v14.4c0,16-13.6,28-29.6,28-13.6,0-24.8-9.6-27.2-23.2-.8-3.2-3.2-6.4-7.2-6.4a8.8,8.8,0,0,0-8,4.8,22.752,22.752,0,0,1-30.4,10.4,14.35,14.35,0,0,1-5.6-4,7.733,7.733,0,0,0-11.2,0,7.263,7.263,0,0,0-2.4,5.6v32.8a12.3,12.3,0,0,1-12,12,12.3,12.3,0,0,1-12-12v-78.4a21.871,21.871,0,0,1,23.2-21.6c6.4,0,12,3.2,16,7.2,3.2,3.2,8,4,11.2.8a9.028,9.028,0,0,0,2.4-8.8,28.424,28.424,0,0,1-1.6-8c0-16,12.8-28.8,28-28.8a29.313,29.313,0,0,1,28,20,8,8,0,0,0,10.4,4.8c.8,0,1.6-.8,2.4-1.6a27.468,27.468,0,0,1,40,4c1.6,1.6,2.4,4,4,5.6a7.061,7.061,0,0,0,10.4,3.2l.8-.8a26.969,26.969,0,0,1,13.6-4c12,0,22.4,9.6,22.4,21.6C252.047,72.774,249.647,77.574,246.447,81.574Zm16.8,104h20.8c8,0,12,6.4,12,18.4v52.8c0,12-4,18.4-12,18.4h-20.8Zm73.6,93.6c0,15.2-4,40-28.8,40h-44.8v-28.8h20.8c17.6,0,28-12.8,28-34.4v-52.8c0-20.8-10.4-34.4-28-34.4h-20.8v-28h44.8c24.8,0,28.8,24.8,28.8,40Z" fill="#4a2328"/>
          <path id="Caminho_9" data-name="Caminho 9" d="M98.447,163.974a7.558,7.558,0,0,0-8,8v131.2a8,8,0,0,0,16,0v-131.2A8.017,8.017,0,0,0,98.447,163.974Z" fill="#4a2328"/>
          <path id="Caminho_10" data-name="Caminho 10" d="M136.047,163.974a7.558,7.558,0,0,0-8,8v131.2a8,8,0,0,0,16,0v-131.2A7.558,7.558,0,0,0,136.047,163.974Z" fill="#4a2328"/>
          <path id="Caminho_11" data-name="Caminho 11" d="M174.447,163.974a7.558,7.558,0,0,0-8,8v131.2a8,8,0,0,0,16,0v-131.2A8.017,8.017,0,0,0,174.447,163.974Z" fill="#4a2328"/>
          <path id="Caminho_12" data-name="Caminho 12" d="M212.047,163.974a7.558,7.558,0,0,0-8,8v131.2a8,8,0,0,0,16,0v-131.2A7.558,7.558,0,0,0,212.047,163.974Z" fill="#4a2328"/>
        </g>
      </g>
    </g>
  </g>
</svg>
